<svg id="Layer_1" enable-background="new 0 0 502.317 502.317" height="512" viewBox="0 0 502.317 502.317" width="512" xmlns="http://www.w3.org/2000/svg"><path d="m497.63 259.461-254.775-254.774c-3.333-3.335-7.969-5.03-12.667-4.629-127.807 10.851-230.188 117.615-230.188 250.667 0 139.046 112.526 251.592 251.591 251.592 132.962 0 239.81-102.303 250.667-230.188.4-4.699-1.294-9.334-4.628-12.668zm-117.851 70.839h-162.704l62.698-125.395c18.47 20.384 39.488 37.016 62.293 49.97zm-198.481 0h-48.725l43.764-87.528 24.363 48.725zm66.162-275.754c7.092 7.092 193.251 193.25 200.311 200.31-106.571-8.948-191.361-93.654-200.311-200.31zm159.406 351.454c-85.818 85.816-224.722 85.826-310.549 0-85.816-85.817-85.827-224.722 0-310.55 32.241-32.24 73.745-53.574 118.391-61.179-.375 51.194 14.777 100.878 43.197 142.816l-39.316 78.632-27.94-55.88c-5.884-11.769-22.733-11.777-28.622 0l-69.654 139.306c-5.308 10.618 2.419 23.155 14.311 23.155h298.983c11.872 0 19.629-12.521 14.311-23.155l-31.981-63.963c25.136 8.219 51.975 12.627 80.049 12.428-7.606 44.646-28.94 86.15-61.18 118.39z"/></svg>